<svg xmlns="http://www.w3.org/2000/svg" xmlns:xlink="http://www.w3.org/1999/xlink" version="1.1" style="" xml:space="preserve" width="50" height="50"><rect id="backgroundrect" width="100%" height="100%" x="0" y="0" fill="none" stroke="none" class="" style=""/>
















<g class="currentLayer" style=""><title>Layer 1</title><g id="svg_1" class="" transform="rotate(0.11553892493247986 24.89525985718021,27.07635498046875) ">
	<path d="M24.895092917061003,5.016324696773926 C12.860404073184533,5.016324696773926 3.068964421031786,13.061376270431188 3.068964421031786,22.949843852617327 c0,6.188418213004023 5.781955914625791,13.627629523981176 8.268144430493443,16.53868389390269 c1.8985379885464992,2.223212575694322 8.386331128725631,9.383241040779263 13.293705476433237,9.635989182422746 c0.08699854175424936,0.007283030762405583 0.17498197266043328,0.011868642723920254 0.26427858910253116,0.011868642723920254 c0.08929661644209762,0 0.17760834373225998,-0.004585611961514631 0.26460688548650935,-0.011868642723920254 c4.907374347707602,-0.2530178835235723 11.395167487886734,-7.412506864848335 13.293705476433237,-9.635989182422746 c2.4858602194836763,-2.9110543699215143 8.268144430493443,-10.349995939018577 8.268144430493443,-16.53868389390269 C46.721549709474175,13.061376270431188 36.93011005732142,5.016324696773926 24.895092917061003,5.016324696773926 zM34.62185818157001,36.92948653011478 c-4.648020204364748,5.5094779008197685 -8.5970974072397,8.013491773686837 -9.726108671741066,8.157264195774326 c-1.1273697825814768,-0.1424237126870429 -5.077431874608361,-2.6458981017939345 -9.727093560893003,-8.157264195774326 C10.74289239652451,31.683276704261957 7.993410180706261,26.326742449452716 7.993410180706261,22.949843852617327 C7.993410180706261,15.292411360648094 15.575743465069042,9.062452898110351 24.895092917061003,9.062452898110351 c9.319677748375934,0 16.902011032738713,6.229958462537742 16.902011032738713,13.887390954506975 C41.79710394979971,26.326742449452716 39.047950030365435,31.683276704261957 34.62185818157001,36.92948653011478 z" id="svg_2"/>
	<path d="M24.895092917061003,13.830410370565199 c-1.3598036224381127,0 -2.4622228798372374,0.9055234914590925 -2.4622228798372374,2.023064100668214 c0,1.1175406092091211 1.1024192573991258,2.023064100668214 2.4622228798372374,2.023064100668214 c3.3932714247996922,0 6.1542440140571815,2.2682594696692013 6.1542440140571815,5.056581284150177 c0,2.7885915563610655 -2.760972589257489,5.057120767910357 -6.1542440140571815,5.057120767910357 c-3.3932714247996922,0 -6.153915717673203,-2.26852921154929 -6.153915717673203,-5.057120767910357 c0,-1.1175406092091211 -1.1024192573991258,-2.023064100668214 -2.4622228798372374,-2.023064100668214 c-1.3598036224381127,0 -2.4622228798372374,0.9055234914590925 -2.4622228798372374,2.023064100668214 c0,5.019356904697882 4.9697506606634825,9.103248969246781 11.078361477347675,9.103248969246781 c6.108610816684196,0 11.078689773731657,-4.083892064548899 11.078689773731657,-9.103248969246781 C35.97378269079266,17.913762951353924 31.004032030129174,13.830410370565199 24.895092917061003,13.830410370565199 z" id="svg_3"/>
</g><g id="svg_4" class="">
</g><g id="svg_5" class="">
</g><g id="svg_6" class="">
</g><g id="svg_7" class="">
</g><g id="svg_8" class="">
</g><g id="svg_9" class="">
</g><g id="svg_10" class="">
</g><g id="svg_11" class="">
</g><g id="svg_12" class="">
</g><g id="svg_13" class="">
</g><g id="svg_14" class="">
</g><g id="svg_15" class="">
</g><g id="svg_16" class="">
</g><g id="svg_17" class="">
</g><g id="svg_18" class="">
</g></g></svg>